# xmcd
#
# Track frame offsets:
#	150
#	36342
#	79159
#	109512
#	141538
#	173921
#	197415
#	234502
#	261315
#	292495
#	323612
#
# Disc length: 4705 seconds
#
# Revision: 0
# Processed by: cddbd v1.5.2PL0 Copyright (c) Steve Scherf et al.
# Submitted via: audiograbber 1.83.01
#
DISCID=a3125f0b
DTITLE=Grateful Dead - 93-03-21 The Omni, Atlanta GA
DYEAR=1900
DGENRE=
TTITLE0=Feel Like A Stranger
TTITLE1=West LA Fadeaway
TTITLE2=Black Throated Wind
TTITLE3=Candyman
TTITLE4=Queen Jane Approximately
TTITLE5=Brown Eyed Women
TTITLE6=Eternity
TTITLE7=Liberty
TTITLE8=Samson and Delilah
TTITLE9=Way To Go Home
TTITLE10=Broken Arrow
EXTD=
EXTT0=
EXTT1=
EXTT2=
EXTT3=
EXTT4=
EXTT5=
EXTT6=
EXTT7=
EXTT8=
EXTT9=
EXTT10=
PLAYORDER=
